<svg xmlns="http://www.w3.org/2000/svg" aria-hidden="true" style="position:absolute;width:0;height:0;overflow:hidden">
  <defs>
    <symbol id="icon-bell" viewBox="0 0 32 32">
<path stroke-linejoin="round" stroke-linecap="round" stroke-miterlimit="4" stroke-width="3" d="M12.472 28c0.94 0.83 2.175 1.333 3.528 1.333s2.588-0.504 3.528-1.333M24 10.667c0-4.418-3.582-8-8-8s-8 3.582-8 8v0c0 4.12-1.039 6.941-2.2 8.807-0.979 1.574-1.469 2.361-1.451 2.58 0.020 0.243 0.071 0.336 0.267 0.481 0.177 0.131 0.974 0.131 2.569 0.131h17.63c1.595 0 2.392 0 2.569-0.131 0.196-0.145 0.247-0.238 0.267-0.481 0.018-0.22-0.472-1.006-1.451-2.58-1.161-1.866-2.2-4.687-2.2-8.807z"></path>
</symbol>
<symbol id="icon-chevron_down" viewBox="0 0 30 32">
<path stroke-linejoin="round" stroke-linecap="round" stroke-miterlimit="4" stroke-width="2.824" d="M7.529 12.235l7.529 7.529 7.529-7.529"></path>
</symbol>
<symbol id="icon-colors" viewBox="0 0 32 32">
<path stroke-linejoin="round" stroke-linecap="round" stroke-miterlimit="4" stroke-width="2.667" d="M16 27.296c1.408 1.262 3.279 2.034 5.329 2.034 4.418 0 8-3.582 8-8 0-3.667-2.468-6.758-5.833-7.703l-0.056-0.014M8.56 13.614c-3.423 0.957-5.892 4.049-5.892 7.717 0 4.418 3.582 8 8 8s8-3.582 8-8c0-1.060-0.206-2.072-0.581-2.998l0.019 0.054M24 10.667c0 4.418-3.582 8-8 8s-8-3.582-8-8v0c0-4.418 3.582-8 8-8s8 3.582 8 8v0z"></path>
</symbol>
<symbol id="icon-container" viewBox="0 0 32 32">
<path stroke-linejoin="round" stroke-linecap="round" stroke-miterlimit="4" stroke-width="2.667" d="M27.333 9.704l-11.333 6.296M16 16l-11.333-6.296M16 16v12.667M28 21.411v-10.823c0-0.457 0-0.685-0.067-0.889-0.064-0.188-0.161-0.35-0.286-0.486l0.001 0.001c-0.145-0.158-0.345-0.269-0.744-0.491l-9.867-5.481c-0.378-0.21-0.567-0.315-0.767-0.356-0.081-0.017-0.173-0.027-0.268-0.027s-0.188 0.010-0.277 0.029l0.009-0.002c-0.2 0.041-0.389 0.146-0.767 0.356l-9.867 5.481c-0.399 0.222-0.599 0.333-0.744 0.491-0.125 0.135-0.222 0.297-0.283 0.476l-0.003 0.009c-0.067 0.204-0.067 0.432-0.067 0.889v10.823c0 0.457 0 0.685 0.067 0.889 0.060 0.18 0.157 0.346 0.286 0.485 0.145 0.158 0.345 0.269 0.744 0.491l9.867 5.482c0.378 0.21 0.567 0.315 0.767 0.356 0.177 0.036 0.36 0.036 0.537 0 0.2-0.041 0.389-0.146 0.767-0.356l9.867-5.482c0.399-0.222 0.599-0.333 0.744-0.491 0.129-0.14 0.226-0.305 0.285-0.485 0.067-0.204 0.067-0.432 0.067-0.889z"></path>
</symbol>
<symbol id="icon-eye" viewBox="0 0 32 32">
<path stroke-linejoin="round" stroke-linecap="round" stroke-miterlimit="4" stroke-width="2.311" d="M1.333 16s5.333-10.667 14.667-10.667 14.667 10.667 14.667 10.667-5.333 10.667-14.667 10.667-14.667-10.667-14.667-10.667z"></path>
<path stroke-linejoin="round" stroke-linecap="round" stroke-miterlimit="4" stroke-width="2.311" d="M16 20c2.209 0 4-1.791 4-4s-1.791-4-4-4v0c-2.209 0-4 1.791-4 4s1.791 4 4 4v0z"></path>
</symbol>
<symbol id="icon-filter" viewBox="0 0 32 32">
<path stroke-linejoin="round" stroke-linecap="round" stroke-miterlimit="4" stroke-width="3" d="M29.334 4h-26.667l10.667 12.613v8.72l5.333 2.667v-11.387l10.667-12.613z"></path>
</symbol>
<symbol id="icon-filter" viewBox="0 0 32 32">
<path stroke-linejoin="round" stroke-linecap="round" stroke-miterlimit="4" stroke-width="3" d="M29.334 4h-26.667l10.667 12.613v8.72l5.333 2.667v-11.387l10.667-12.613z"></path>
</symbol>
<symbol id="icon-hexagon" viewBox="0 0 32 32">
<path stroke-linejoin="round" stroke-linecap="round" stroke-miterlimit="4" stroke-width="2.667" d="M14.964 3.242c0.378-0.21 0.567-0.315 0.767-0.356 0.177-0.036 0.36-0.036 0.537 0 0.2 0.041 0.389 0.146 0.767 0.356l9.867 5.482c0.399 0.222 0.599 0.333 0.744 0.491 0.129 0.14 0.226 0.305 0.285 0.485 0.067 0.204 0.067 0.432 0.067 0.889v10.823c0 0.457 0 0.685-0.067 0.889-0.060 0.18-0.157 0.346-0.285 0.485-0.145 0.158-0.345 0.269-0.744 0.491l-9.867 5.482c-0.378 0.21-0.567 0.315-0.767 0.356-0.177 0.036-0.36 0.036-0.537 0-0.2-0.041-0.389-0.146-0.767-0.356l-9.867-5.482c-0.399-0.222-0.599-0.333-0.744-0.491-0.125-0.135-0.222-0.297-0.283-0.476l-0.003-0.009c-0.067-0.204-0.067-0.432-0.067-0.889v-10.823c0-0.457 0-0.685 0.067-0.889 0.060-0.18 0.157-0.346 0.286-0.485 0.145-0.158 0.345-0.269 0.744-0.491l9.867-5.481z"></path>
</symbol>
<symbol id="icon-icons" viewBox="0 0 32 32">
<path stroke-linejoin="round" stroke-linecap="round" stroke-miterlimit="4" stroke-width="2.667" d="M14.964 3.242c0.378-0.21 0.567-0.315 0.767-0.356 0.177-0.036 0.36-0.036 0.537 0 0.2 0.041 0.389 0.146 0.767 0.356l9.867 5.482c0.399 0.222 0.599 0.333 0.744 0.491 0.129 0.14 0.226 0.305 0.285 0.485 0.067 0.204 0.067 0.432 0.067 0.889v10.823c0 0.457 0 0.685-0.067 0.889-0.060 0.18-0.157 0.346-0.285 0.485-0.145 0.158-0.345 0.269-0.744 0.491l-9.867 5.482c-0.378 0.21-0.567 0.315-0.767 0.356-0.177 0.036-0.36 0.036-0.537 0-0.2-0.041-0.389-0.146-0.767-0.356l-9.867-5.482c-0.399-0.222-0.599-0.333-0.744-0.491-0.125-0.135-0.222-0.297-0.283-0.476l-0.003-0.009c-0.067-0.204-0.067-0.432-0.067-0.889v-10.823c0-0.457 0-0.685 0.067-0.889 0.060-0.18 0.157-0.346 0.286-0.485 0.145-0.158 0.345-0.269 0.744-0.491l9.867-5.481z"></path>
</symbol>
<symbol id="icon-img_placeholder" viewBox="0 0 37 32">
<path stroke-linejoin="round" stroke-linecap="round" stroke-miterlimit="4" stroke-width="2.286" d="M28.952 29.714h1.54c1.48 0 2.22 0 2.628-0.309 0.355-0.269 0.575-0.68 0.602-1.124 0.031-0.511-0.38-1.126-1.201-2.358l-4.587-6.881c-0.678-1.017-1.018-1.526-1.445-1.703-0.172-0.073-0.373-0.116-0.584-0.116s-0.411 0.043-0.593 0.12l0.010-0.004c-0.428 0.177-0.767 0.686-1.445 1.703l-1.134 1.701M28.952 29.714l-11.71-16.914c-0.673-0.973-1.010-1.459-1.431-1.63-0.17-0.071-0.367-0.113-0.574-0.113s-0.404 0.041-0.584 0.116l0.010-0.004c-0.421 0.171-0.757 0.657-1.431 1.63l-9.061 13.088c-0.858 1.239-1.287 1.859-1.263 2.374 0.021 0.449 0.24 0.865 0.596 1.138 0.41 0.313 1.163 0.313 2.671 0.313h22.775zM32 6.857c0 2.525-2.047 4.571-4.571 4.571s-4.571-2.046-4.571-4.571v0c0-2.524 2.047-4.571 4.571-4.571s4.571 2.046 4.571 4.571v0z"></path>
</symbol>
<symbol id="icon-lightning" viewBox="0 0 32 32">
<path stroke-linejoin="round" stroke-linecap="round" stroke-miterlimit="4" stroke-width="2.667" d="M18.999 2.667h-7.674c-0.239 0-0.359 0-0.465 0.036-0.097 0.034-0.18 0.087-0.249 0.154l0-0c-0.080 0.078-0.133 0.185-0.24 0.399l-5.6 11.2c-0.256 0.511-0.383 0.767-0.353 0.974 0.028 0.187 0.13 0.345 0.275 0.448l0.002 0.001c0.172 0.12 0.458 0.12 1.029 0.12h8.274l-4 13.333 16.258-16.86c0.548-0.569 0.823-0.853 0.839-1.097 0.001-0.013 0.002-0.029 0.002-0.044 0-0.204-0.091-0.386-0.236-0.508l-0.001-0.001c-0.186-0.157-0.581-0.157-1.372-0.157h-9.49l3-8z"></path>
</symbol>
<symbol id="icon-loading" viewBox="0 0 32 32">
<path stroke-linejoin="round" stroke-linecap="round" stroke-miterlimit="4" stroke-width="2.667" d="M4.454 22.666c-0.536-0.913-0.853-2.011-0.853-3.183 0-2.183 1.1-4.11 2.775-5.256l0.022-0.014 0.003-0.003c1-0.684 2.235-1.092 3.566-1.092 1.408 0 2.709 0.457 3.764 1.23l-0.018-0.012 4.576 3.327c1.037 0.761 2.338 1.218 3.746 1.218 1.331 0 2.566-0.408 3.588-1.106l-0.022 0.014 0.003-0.003c1.698-1.159 2.798-3.086 2.798-5.269 0-1.173-0.317-2.271-0.871-3.214l0.016 0.030M22.669 27.546c-0.913 0.536-2.011 0.853-3.182 0.853-2.183 0-4.11-1.099-5.257-2.775l-0.014-0.022-0.003-0.003c-0.684-1-1.092-2.235-1.092-3.566 0-1.408 0.457-2.709 1.23-3.764l-0.012 0.018 3.327-4.576c0.761-1.037 1.218-2.338 1.218-3.746 0-1.331-0.408-2.566-1.106-3.588l0.014 0.022-0.006-0.003c-1.16-1.697-3.086-2.796-5.269-2.796-1.172 0-2.271 0.317-3.214 0.87l0.030-0.016M25.427 6.572c5.207 5.207 5.207 13.648 0 18.855s-13.648 5.207-18.855 0c-5.207-5.207-5.207-13.648 0-18.855s13.648-5.207 18.855 0z"></path>
</symbol>
<symbol id="icon-login" viewBox="0 0 32 32">
<path stroke-linejoin="round" stroke-linecap="round" stroke-miterlimit="4" stroke-width="1.5" d="M11.867 10.080c0.413-4.8 2.88-6.76 8.28-6.76h0.173c5.96 0 8.347 2.387 8.347 8.347v8.693c0 5.96-2.387 8.347-8.347 8.347h-0.173c-5.36 0-7.827-1.933-8.267-6.653M2.667 16h17.173"></path>
<path stroke-linejoin="round" stroke-linecap="round" stroke-miterlimit="4" stroke-width="1.5" d="M16.867 11.533l4.467 4.467-4.467 4.467"></path>
</symbol>
<symbol id="icon-logo" viewBox="0 0 24 32">
<path d="M6.662 30.054c0.49-2.544 0.906-5.22 1.494-7.898 0.29-1.4-0.062-2-1.628-1.892-1.568 0.108-3.314 0.054-4.98 0-1.666-0.052-1.964-0.892-1.006-2.088 4.726-5.836 9.506-11.6 14.268-17.346 0.534-0.652 1.15-1.116 2.030-0.626 0.88 0.492 0.698 1.1 0.552 1.83-0.524 2.678-0.96 5.354-1.54 7.978-0.298 1.356 0.092 1.838 1.504 1.784 0.639-0.035 1.388-0.054 2.141-0.054 0.78 0 1.556 0.021 2.326 0.063l-0.107-0.005-0.103-0.004c0.806 0 1.864-0.42 2.28 0.68 0.418 1.096-0.46 1.56-0.904 2.212-2.747 3.417-4.799 5.897-6.874 8.356l0.604-0.735 0.766-0.937c1.189-1.534-1.461 1.625-4.105 4.789l-3.999 4.919c-0.524 0.634-1.112 1.142-2.010 0.82-0.896-0.32-0.706-1.080-0.706-1.846z"></path>
</symbol>
<symbol id="icon-normal" viewBox="0 0 32 32">
<path stroke-linejoin="round" stroke-linecap="round" stroke-miterlimit="4" stroke-width="2.6" d="M4.45 9.333c2.347-4.014 6.636-6.667 11.544-6.667 0.002 0 0.004 0 0.006 0h-0c7.364 0 13.333 5.97 13.333 13.333s-5.97 13.333-13.333 13.333c-0.002 0-0.003 0-0.005 0-4.909 0-9.197-2.653-11.511-6.604l-0.034-0.063"></path>
<path stroke-linejoin="round" stroke-linecap="round" stroke-miterlimit="4" stroke-width="2.6" d="M16 21.333l5.333-5.333-5.333-5.333M2.667 16h18.667"></path>
</symbol>
<symbol id="icon-pencil" viewBox="0 0 32 32">
<path stroke-linejoin="round" stroke-linecap="round" stroke-miterlimit="4" stroke-width="2.6" d="M3.333 28.667l7.399-2.846c0.473-0.182 0.71-0.273 0.931-0.392 0.197-0.106 0.384-0.227 0.56-0.364 0.199-0.154 0.378-0.333 0.736-0.692l15.040-15.040c0.682-0.682 1.105-1.625 1.105-2.667 0-2.083-1.688-3.771-3.771-3.771-1.041 0-1.984 0.422-2.666 1.104l-15.040 15.040c-0.359 0.359-0.538 0.538-0.692 0.736-0.128 0.163-0.249 0.346-0.354 0.539l-0.010 0.021c-0.119 0.221-0.21 0.458-0.392 0.931l-2.846 7.399zM3.333 28.667l2.744-7.135c0.196-0.511 0.295-0.766 0.463-0.883 0.106-0.074 0.238-0.119 0.38-0.119 0.044 0 0.088 0.004 0.13 0.013l-0.004-0.001c0.201 0.038 0.395 0.232 0.782 0.619l3.012 3.012c0.387 0.387 0.58 0.58 0.619 0.782 0.008 0.038 0.012 0.081 0.012 0.125 0 0.142-0.045 0.274-0.12 0.382l0.001-0.002c-0.117 0.168-0.372 0.267-0.883 0.463l-7.135 2.744z"></path>
</symbol>
<symbol id="icon-plus" viewBox="0 0 32 32">
<path stroke-linejoin="round" stroke-linecap="round" stroke-miterlimit="4" stroke-width="2.88" d="M16 6.667v18.667M6.666 16h18.667"></path>
</symbol>
<symbol id="icon-project" viewBox="0 0 32 32">
<path stroke-linejoin="miter" stroke-linecap="butt" stroke-miterlimit="4" stroke-width="2.667" d="M4.396 6.978c0.308-1.283 1.299-2.274 2.558-2.577l0.024-0.005c0.507-0.124 1.090-0.195 1.688-0.195s1.181 0.071 1.739 0.205l-0.051-0.010c1.283 0.308 2.274 1.299 2.577 2.558l0.005 0.024c0.26 1.11 0.26 2.266 0 3.377-0.308 1.283-1.299 2.274-2.558 2.577l-0.024 0.005c-1.11 0.26-2.266 0.26-3.377 0-1.283-0.308-2.274-1.299-2.577-2.558l-0.005-0.024c-0.124-0.507-0.195-1.090-0.195-1.688s0.071-1.181 0.205-1.739l-0.010 0.051zM4.396 21.645c0.308-1.283 1.299-2.274 2.558-2.577l0.024-0.005c0.507-0.124 1.090-0.196 1.688-0.196s1.181 0.071 1.739 0.206l-0.050-0.010c1.283 0.308 2.274 1.299 2.577 2.558l0.005 0.024c0.124 0.507 0.195 1.090 0.195 1.689s-0.071 1.181-0.205 1.739l0.010-0.051c-0.308 1.283-1.299 2.274-2.558 2.577l-0.024 0.005c-0.507 0.124-1.090 0.196-1.688 0.196s-1.181-0.071-1.739-0.206l0.050 0.010c-1.283-0.308-2.274-1.299-2.577-2.558l-0.005-0.024c-0.124-0.507-0.195-1.090-0.195-1.689s0.071-1.181 0.205-1.739l-0.010 0.051zM19.063 6.978c0.308-1.283 1.299-2.274 2.558-2.577l0.024-0.005c0.507-0.124 1.090-0.195 1.689-0.195s1.181 0.071 1.739 0.205l-0.051-0.010c1.283 0.308 2.274 1.299 2.577 2.558l0.005 0.024c0.124 0.507 0.196 1.090 0.196 1.688s-0.071 1.181-0.206 1.739l0.010-0.050c-0.308 1.283-1.299 2.274-2.558 2.577l-0.024 0.005c-0.507 0.124-1.090 0.195-1.689 0.195s-1.181-0.071-1.739-0.205l0.051 0.010c-1.283-0.308-2.274-1.299-2.577-2.558l-0.005-0.024c-0.124-0.507-0.196-1.090-0.196-1.688s0.071-1.181 0.206-1.739l-0.010 0.050zM19.063 21.645c0.308-1.283 1.299-2.274 2.558-2.577l0.024-0.005c0.507-0.124 1.090-0.196 1.689-0.196s1.181 0.071 1.739 0.206l-0.050-0.010c1.283 0.308 2.274 1.299 2.577 2.558l0.005 0.024c0.124 0.507 0.196 1.090 0.196 1.689s-0.071 1.181-0.206 1.739l0.010-0.050c-0.308 1.283-1.299 2.274-2.558 2.577l-0.024 0.005c-0.507 0.124-1.090 0.196-1.689 0.196s-1.181-0.071-1.739-0.206l0.050 0.010c-1.283-0.308-2.274-1.299-2.577-2.558l-0.005-0.024c-0.124-0.507-0.196-1.090-0.196-1.689s0.071-1.181 0.206-1.739l-0.010 0.050z"></path>
</symbol>
<symbol id="icon-puzzle" viewBox="0 0 32 32">
<path stroke-linejoin="round" stroke-linecap="round" stroke-miterlimit="4" stroke-width="2.667" d="M16 2.667l4.8 4.8c3.2-8.4 12.133 0.533 3.733 3.733l4.8 4.8-4.8 4.8c-3.2-8.4-12.133 0.533-3.733 3.733l-4.8 4.8-4.8-4.8c-3.2 8.4-12.133-0.533-3.733-3.733l-4.8-4.8 4.8-4.8c3.2 8.4 12.133-0.533 3.733-3.733l4.8-4.8z"></path>
</symbol>
<symbol id="icon-star" viewBox="0 0 32 32">
<path stroke-linejoin="round" stroke-linecap="round" stroke-miterlimit="4" stroke-width="2.667" d="M16 2.667l2.683 6.975c0.376 0.978 0.564 1.466 0.856 1.878 0.259 0.364 0.577 0.683 0.942 0.942 0.411 0.292 0.9 0.48 1.878 0.856l6.975 2.683-6.975 2.683c-0.978 0.376-1.466 0.564-1.878 0.856-0.367 0.263-0.679 0.575-0.934 0.93l-0.008 0.012c-0.292 0.411-0.48 0.9-0.856 1.878l-2.683 6.975-2.683-6.975c-0.376-0.978-0.564-1.466-0.856-1.878-0.263-0.367-0.575-0.679-0.93-0.934l-0.012-0.008c-0.411-0.292-0.9-0.48-1.878-0.856l-6.975-2.683 6.975-2.683c0.978-0.376 1.466-0.564 1.878-0.856 0.364-0.259 0.683-0.578 0.942-0.942 0.292-0.411 0.48-0.9 0.856-1.878l2.683-6.975z"></path>
</symbol>
<symbol id="icon-trash" viewBox="0 0 32 32">
<path stroke-linejoin="round" stroke-linecap="round" stroke-miterlimit="4" stroke-width="2.6" d="M12 4h8M4 8h24M6.667 8l0.801 12.018c0.149 2.231 0.223 3.347 0.588 4.243 0.674 1.625 1.993 2.868 3.63 3.423l0.042 0.012c0.919 0.304 2.037 0.304 4.273 0.304v0c2.236 0 3.354 0 4.273-0.304 1.679-0.567 2.998-1.81 3.657-3.395l0.015-0.040c0.365-0.896 0.439-2.012 0.588-4.243l0.801-12.018"></path>
</symbol>
<symbol id="icon-user" viewBox="0 0 37 32">
<path d="M26.445 7.556c0 4.173-3.383 7.556-7.556 7.556s-7.556-3.383-7.556-7.556v0c0-4.173 3.383-7.556 7.556-7.556s7.556 3.383 7.556 7.556v0z"></path>
<path d="M37.169 33.208c0-0.001 0-0.001 0-0.002 0-10.263-8.32-18.583-18.583-18.583-0.001 0-0.001 0-0.002 0h0c-10.264 0.001-18.584 8.321-18.585 18.585v0h37.169z"></path>
</symbol>
<symbol id="icon-close" viewBox="0 0 32 32">
<path stroke-linejoin="round" stroke-linecap="round" stroke-miterlimit="4" stroke-width="2.667" d="M24 8l-16 16M8 8l16 16"></path>
</symbol>
<symbol id="icon-Vector" viewBox="0 0 3392 32">
<path fill="none" stroke="#fff" style="stroke: var(--color1, #fff)" stroke-linejoin="miter" stroke-linecap="butt" stroke-miterlimit="4" stroke-width="16" d="M0 16h3392"></path>
</symbol>
<symbol id="icon-help-circle" viewBox="0 0 32 32">
<path fill="none"  stroke-linejoin="round" stroke-linecap="round" stroke-miterlimit="4" stroke-width="2.88" d="M16 29.333c7.364 0 13.333-5.97 13.333-13.333s-5.969-13.333-13.333-13.333-13.333 5.97-13.333 13.333c0 7.364 5.97 13.333 13.333 13.333z"></path>
<path fill="none" stroke-linejoin="round" stroke-linecap="round" stroke-miterlimit="4" stroke-width="2.88" d="M12.12 12c0.313-0.891 0.932-1.643 1.747-2.121s1.772-0.654 2.703-0.494c0.931 0.16 1.776 0.644 2.384 1.366s0.941 1.637 0.94 2.582c0 2.667-4 4-4 4"></path>
<path fill="none" stroke-linejoin="round" stroke-linecap="round" stroke-miterlimit="4" stroke-width="2.88" d="M16 22.667h0.020"></path>
</symbol>



<symbol id="icon-menu" viewBox="0 0 32 32">
<path stroke-linejoin="round" stroke-linecap="round" stroke-miterlimit="4" stroke-width="2.5" d="M4 16h24M4 8h24M4 24h24"></path>
</symbol>

  </defs>
</svg>